<svg width="16" height="11" viewBox="0 0 16 11" fill="none" xmlns="http://www.w3.org/2000/svg">
<path fill-rule="evenodd" clip-rule="evenodd" d="M10.293 0.681947C10.4805 0.494476 10.7348 0.38916 11 0.38916C11.2652 0.38916 11.5195 0.494476 11.707 0.681947L15.707 4.68195C15.8945 4.86947 15.9998 5.12378 15.9998 5.38895C15.9998 5.65411 15.8945 5.90842 15.707 6.09595L11.707 10.0959C11.5184 10.2781 11.2658 10.3789 11.0036 10.3766C10.7414 10.3743 10.4906 10.2692 10.3052 10.0838C10.1198 9.89836 10.0146 9.64754 10.0123 9.38535C10.01 9.12315 10.1108 8.87055 10.293 8.68195L12.586 6.38895H1C0.734784 6.38895 0.48043 6.28359 0.292893 6.09605C0.105357 5.90852 0 5.65416 0 5.38895C0 5.12373 0.105357 4.86938 0.292893 4.68184C0.48043 4.4943 0.734784 4.38895 1 4.38895H12.586L10.293 2.09595C10.1055 1.90842 10.0002 1.65411 10.0002 1.38895C10.0002 1.12378 10.1055 0.869474 10.293 0.681947Z" fill="white"/>
</svg>
