<svg width="18" height="18" viewBox="0 0 18 18" fill="none" xmlns="http://www.w3.org/2000/svg">
<path d="M5.80078 14.2109C5.80078 14.1406 5.73047 14.0703 5.625 14.0703C5.51953 14.0703 5.44922 14.1406 5.44922 14.2109C5.44922 14.2812 5.51953 14.3516 5.625 14.3164C5.73047 14.3164 5.80078 14.2812 5.80078 14.2109ZM4.71094 14.0352C4.71094 14.1055 4.78125 14.2109 4.88672 14.2109C4.95703 14.2461 5.0625 14.2109 5.09766 14.1406C5.09766 14.0703 5.0625 14 4.95703 13.9648C4.85156 13.9297 4.74609 13.9648 4.71094 14.0352ZM6.29297 14C6.1875 14 6.11719 14.0703 6.11719 14.1758C6.11719 14.2461 6.22266 14.2812 6.32812 14.2461C6.43359 14.2109 6.50391 14.1758 6.46875 14.1055C6.46875 14.0352 6.36328 13.9648 6.29297 14ZM8.57812 0.5C3.72656 0.5 0 4.22656 0 9.07812C0 12.9805 2.42578 16.3203 5.94141 17.5156C6.39844 17.5859 6.53906 17.3047 6.53906 17.0938C6.53906 16.8477 6.53906 15.6523 6.53906 14.9141C6.53906 14.9141 4.07812 15.4414 3.55078 13.8594C3.55078 13.8594 3.16406 12.8398 2.60156 12.5938C2.60156 12.5938 1.79297 12.0312 2.63672 12.0312C2.63672 12.0312 3.51562 12.1016 4.00781 12.9453C4.78125 14.3164 6.04688 13.9297 6.57422 13.6836C6.64453 13.1211 6.85547 12.7344 7.13672 12.4883C5.16797 12.2773 3.16406 11.9961 3.16406 8.62109C3.16406 7.63672 3.44531 7.17969 4.00781 6.54688C3.90234 6.30078 3.62109 5.38672 4.11328 4.15625C4.81641 3.94531 6.53906 5.10547 6.53906 5.10547C7.24219 4.89453 7.98047 4.82422 8.71875 4.82422C9.49219 4.82422 10.2305 4.89453 10.9336 5.10547C10.9336 5.10547 12.6211 3.91016 13.3594 4.15625C13.8516 5.38672 13.5352 6.30078 13.4648 6.54688C14.0273 7.17969 14.3789 7.63672 14.3789 8.62109C14.3789 11.9961 12.3047 12.2773 10.3359 12.4883C10.6523 12.7695 10.9336 13.2969 10.9336 14.1406C10.9336 15.3008 10.8984 16.7773 10.8984 17.0586C10.8984 17.3047 11.0742 17.5859 11.5312 17.4805C15.0469 16.3203 17.4375 12.9805 17.4375 9.07812C17.4375 4.22656 13.4648 0.5 8.57812 0.5ZM3.41016 12.6289C3.33984 12.6641 3.375 12.7695 3.41016 12.8398C3.48047 12.875 3.55078 12.9102 3.62109 12.875C3.65625 12.8398 3.65625 12.7344 3.58594 12.6641C3.51562 12.6289 3.44531 12.5938 3.41016 12.6289ZM3.02344 12.3477C2.98828 12.418 3.02344 12.4531 3.09375 12.4883C3.16406 12.5234 3.23438 12.5234 3.26953 12.4531C3.26953 12.418 3.23438 12.3828 3.16406 12.3477C3.09375 12.3125 3.05859 12.3125 3.02344 12.3477ZM4.14844 13.6133C4.11328 13.6484 4.11328 13.7539 4.21875 13.8242C4.28906 13.8945 4.39453 13.9297 4.42969 13.8594C4.46484 13.8242 4.46484 13.7188 4.39453 13.6484C4.32422 13.5781 4.21875 13.543 4.14844 13.6133ZM3.76172 13.0859C3.69141 13.1211 3.69141 13.2266 3.76172 13.2969C3.83203 13.3672 3.90234 13.4023 3.97266 13.3672C4.00781 13.332 4.00781 13.2266 3.97266 13.1562C3.90234 13.0859 3.83203 13.0508 3.76172 13.0859Z" fill="#9CA3AF"/>
</svg>
