<svg width="32" height="15" viewBox="0 0 32 15" fill="none" xmlns="http://www.w3.org/2000/svg">
<path d="M31.3372 13.8509L22.0938 4.34254C21.9074 4.15103 21.6547 4.04346 21.3913 4.04346C21.1279 4.04346 20.8752 4.15103 20.6888 4.34254L11.4454 13.8509C11.3677 13.9308 11.3147 14.0326 11.2933 14.1434C11.2718 14.2543 11.2828 14.3691 11.3249 14.4735C11.3669 14.578 11.4381 14.6672 11.5295 14.7299C11.6209 14.7927 11.7283 14.8261 11.8382 14.8261H30.9444C31.0543 14.8261 31.1617 14.7927 31.2531 14.7299C31.3444 14.6672 31.4157 14.578 31.4577 14.4735C31.4998 14.3691 31.5107 14.2543 31.4893 14.1434C31.4678 14.0326 31.4149 13.9308 31.3372 13.8509Z" fill="#FF007A"/>
<path d="M0.662797 0.97526L9.9062 10.4836C10.0926 10.6751 10.3453 10.7827 10.6087 10.7827C10.8721 10.7827 11.1248 10.6751 11.3112 10.4836L20.5546 0.975262C20.6323 0.895388 20.6853 0.793589 20.7067 0.682754C20.7282 0.571918 20.7172 0.45703 20.6751 0.352627C20.6331 0.248222 20.5619 0.158998 20.4705 0.0962477C20.3791 0.0334959 20.2717 3.62007e-05 20.1618 0.000107717L1.05558 0.000106046C0.945718 3.45111e-05 0.838292 0.0334942 0.746924 0.0962459C0.655555 0.158997 0.58435 0.248221 0.542298 0.352625C0.500245 0.457029 0.489251 0.571916 0.510703 0.682752C0.532155 0.793587 0.585078 0.895386 0.662797 0.97526Z" fill="#FF007A"/>
</svg>
