<svg width="18" height="16" viewBox="0 0 18 16" fill="none" xmlns="http://www.w3.org/2000/svg">
  <path d="M16.1367 4.12109C16.8398 3.59375 17.4727 2.96094 17.9648 2.22266C17.332 2.50391 16.5938 2.71484 15.8555 2.78516C16.6289 2.32812 17.1914 1.625 17.4727 0.746094C16.7695 1.16797 15.9609 1.48438 15.1523 1.66016C14.4492 0.921875 13.5 0.5 12.4453 0.5C10.4062 0.5 8.75391 2.15234 8.75391 4.19141C8.75391 4.47266 8.78906 4.75391 8.85938 5.03516C5.80078 4.85938 3.05859 3.38281 1.23047 1.16797C0.914062 1.69531 0.738281 2.32812 0.738281 3.03125C0.738281 4.29688 1.37109 5.42188 2.39062 6.08984C1.79297 6.05469 1.19531 5.91406 0.703125 5.63281V5.66797C0.703125 7.46094 1.96875 8.9375 3.65625 9.28906C3.375 9.35938 3.02344 9.42969 2.70703 9.42969C2.46094 9.42969 2.25 9.39453 2.00391 9.35938C2.46094 10.8359 3.83203 11.8906 5.44922 11.9258C4.18359 12.9102 2.60156 13.5078 0.878906 13.5078C0.5625 13.5078 0.28125 13.4727 0 13.4375C1.61719 14.4922 3.55078 15.0898 5.66016 15.0898C12.4453 15.0898 16.1367 9.5 16.1367 4.61328C16.1367 4.4375 16.1367 4.29688 16.1367 4.12109Z" fill="#9CA3AF" />
</svg>